<?xml version="1.0" encoding="UTF-8"?>
<svg version="1.1" xmlns="http://www.w3.org/2000/svg" width="552" height="452">
<path d="M0 0 C1 1 1 1 1.06933594 3.09448242 C-0.08859209 40.72381583 -0.08859209 40.72381583 -11.73046875 53.96875 C-13.41870283 55.48313846 -15.10516263 56.75550935 -17 58 C-17.7321875 58.48210937 -18.464375 58.96421875 -19.21875 59.4609375 C-21.12689687 60.67704519 -23.04882165 61.85463297 -25 63 C-24.39671875 62.79503906 -23.7934375 62.59007812 -23.171875 62.37890625 C-21.97304688 61.97478516 -21.97304688 61.97478516 -20.75 61.5625 C-19.96109375 61.29566406 -19.1721875 61.02882812 -18.359375 60.75390625 C-16.25178012 60.08045292 -14.15246027 59.50849405 -12 59 C-10.76710633 62.698681 -11.68615755 64.01537881 -13.35058594 67.39526367 C-13.70926758 68.08982666 -14.06794922 68.78438965 -14.4375 69.5 C-14.98132324 70.56988159 -14.98132324 70.56988159 -15.53613281 71.66137695 C-18.78304189 77.88835466 -22.62170355 83.50873324 -27 89 C-27.68707031 89.87140625 -28.37414062 90.7428125 -29.08203125 91.640625 C-32.62784542 96.00248194 -36.62218315 99.50824803 -41 103 C-41.68578125 103.60199219 -42.3715625 104.20398438 -43.078125 104.82421875 C-50.6315337 111.30439132 -59.15790968 115.5686972 -68 120 C-62.12433241 119.2805305 -57.09102724 117.21256778 -51.65820312 114.99609375 C-46.31499514 112.89500162 -46.31499514 112.89500162 -43 114 C-44.29004843 120.73691957 -47.63493627 124.82659114 -52 130 C-52.75410156 130.99 -52.75410156 130.99 -53.5234375 132 C-58.86646972 138.72625376 -65.92635262 143.28301338 -73 148 C-73.92135742 148.61439941 -73.92135742 148.61439941 -74.86132812 149.24121094 C-81.03528471 153.32990223 -87.27152081 157.23198334 -93.78515625 160.76171875 C-105.75157275 167.4519375 -115.64620038 175.22095873 -123.8125 186.3125 C-124.21919922 186.86228516 -124.62589844 187.41207031 -125.04492188 187.97851562 C-126.03368611 189.31625547 -127.01738585 190.65773623 -128 192 C-130 190 -130 190 -130.03100586 187.52001953 C-129.87450562 185.96710205 -129.87450562 185.96710205 -129.71484375 184.3828125 C-129.59906982 183.22837646 -129.4832959 182.07394043 -129.36401367 180.88452148 C-129.22326416 179.64387939 -129.08251465 178.4032373 -128.9375 177.125 C-128.72540894 175.2224646 -128.72540894 175.2224646 -128.5090332 173.28149414 C-127.22464716 162.5443525 -125.06681024 152.35348162 -122 142 C-121.66959717 140.83645996 -121.66959717 140.83645996 -121.33251953 139.64941406 C-114.28544925 114.91046145 -103.36790111 91.17108403 -87.8984375 70.5546875 C-86.0149478 68.17534287 -86.0149478 68.17534287 -85 66 C-92.51961622 74.73245754 -99.41076714 83.91276546 -105 94 C-105.34611328 94.61069336 -105.69222656 95.22138672 -106.04882812 95.85058594 C-117.8796052 116.83970566 -126.38707295 139.00802862 -132.30493164 162.33886719 C-132.8340074 164.36448215 -133.40930135 166.37808724 -134.00537109 168.38500977 C-134.98197041 171.93447125 -135.66378379 175.41066754 -136.25390625 179.04296875 C-136.35968491 179.69268143 -136.46546356 180.3423941 -136.57444763 181.01179504 C-136.79578566 182.37870096 -137.01500247 183.74595192 -137.23217773 185.11352539 C-137.55907414 187.16599025 -137.89526014 189.21677771 -138.23242188 191.26757812 C-139.51104268 199.16414288 -140.45659215 207.01888926 -141 215 C-140.36980957 214.9297612 -139.73961914 214.8595224 -139.09033203 214.78715515 C-131.33988589 213.99520667 -123.6617665 213.83891696 -115.875 213.83203125 C-114.52050749 213.8288015 -113.1660153 213.82543629 -111.81152344 213.82194519 C-108.9775309 213.81599217 -106.14356865 213.81410077 -103.30957031 213.81469727 C-100.46510338 213.81477768 -97.62080042 213.80796694 -94.77636719 213.79418945 C-80.13331579 213.72444504 -65.5527917 213.83324931 -50.9375 214.88671875 C-49.84405273 214.96445023 -48.75060547 215.0421817 -47.62402344 215.12226868 C-41.87543267 215.58916606 -36.54725122 216.41382245 -31 218 C-31 218.99 -31 219.98 -31 221 C-38.98737714 222.64869708 -46.86149041 223.57550939 -55 224 C-55.83789062 224.04511719 -56.67578125 224.09023438 -57.5390625 224.13671875 C-146.5524779 228.72376105 -146.5524779 228.72376105 -162 221 C-162 220.01 -162 219.02 -162 218 C-156.42932723 216.40837921 -151.78898419 215.79325056 -146 216 C-146.02320313 215.28199219 -146.04640625 214.56398438 -146.0703125 213.82421875 C-146.36355229 197.00482245 -143.65738635 180.55817795 -140.3125 164.125 C-140.13736877 163.25391602 -139.96223755 162.38283203 -139.78179932 161.48535156 C-137.2690638 149.06419413 -134.39955742 136.97702748 -129.8203125 125.13037109 C-128.98022121 122.94863401 -128.18883644 120.7537427 -127.40625 118.55078125 C-124.73987238 111.11507437 -121.77468044 103.95093593 -118 97 C-117.5153125 96.09765625 -117.030625 95.1953125 -116.53125 94.265625 C-115.51274573 92.38450997 -114.4854194 90.50814411 -113.44921875 88.63671875 C-112.57552795 87.04711958 -111.71850877 85.4479589 -110.89453125 83.83203125 C-103.41298687 69.43613539 -92.36028444 57.41164743 -81 46 C-80.45085937 45.44683105 -79.90171875 44.89366211 -79.3359375 44.32373047 C-60.96544492 26.04938887 -37.8200901 12.88127986 -14 3 C-13.30519531 2.70222656 -12.61039063 2.40445313 -11.89453125 2.09765625 C-7.79442676 0.42838294 -4.50689984 -0.43969755 0 0 Z M-78 57 C-78.99 57.99 -79.98 58.98 -81 60 C-80.67 60.66 -80.34 61.32 -80 62 C-79.01 61.01 -78.02 60.02 -77 59 C-77.33 58.34 -77.66 57.68 -78 57 Z M-82 62 C-82.33 62.66 -82.66 63.32 -83 64 C-82.34 64 -81.68 64 -81 64 C-81.33 63.34 -81.66 62.68 -82 62 Z " fill="#0E0F10" transform="translate(357,114)"/>
<path d="M0 0 C-0.98097656 0.49886719 -1.96195312 0.99773437 -2.97265625 1.51171875 C-16.41658479 8.57616072 -27.97276878 17.5559284 -37.484375 29.48828125 C-39 31 -39 31 -42 31 C-51.02266963 38.94742921 -58.21213398 50.55427989 -64 61 C-64.34611328 61.61069336 -64.69222656 62.22138672 -65.04882812 62.85058594 C-76.8796052 83.83970566 -85.38707295 106.00802862 -91.30493164 129.33886719 C-91.8340074 131.36448215 -92.40930135 133.37808724 -93.00537109 135.38500977 C-93.98197041 138.93447125 -94.66378379 142.41066754 -95.25390625 146.04296875 C-95.35968491 146.69268143 -95.46546356 147.3423941 -95.57444763 148.01179504 C-95.79578566 149.37870096 -96.01500247 150.74595192 -96.23217773 152.11352539 C-96.55907414 154.16599025 -96.89526014 156.21677771 -97.23242188 158.26757812 C-98.51104268 166.16414288 -99.45659215 174.01888926 -100 182 C-99.36980957 181.9297612 -98.73961914 181.8595224 -98.09033203 181.78715515 C-90.33988589 180.99520667 -82.6617665 180.83891696 -74.875 180.83203125 C-73.52050749 180.8288015 -72.1660153 180.82543629 -70.81152344 180.82194519 C-67.9775309 180.81599217 -65.14356865 180.81410077 -62.30957031 180.81469727 C-59.46510338 180.81477768 -56.62080042 180.80796694 -53.77636719 180.79418945 C-39.13331579 180.72444504 -24.5527917 180.83324931 -9.9375 181.88671875 C-8.84405273 181.96445023 -7.75060547 182.0421817 -6.62402344 182.12226868 C-0.87543267 182.58916606 4.45274878 183.41382245 10 185 C10 185.99 10 186.98 10 188 C2.01262286 189.64869708 -5.86149041 190.57550939 -14 191 C-14.83789062 191.04511719 -15.67578125 191.09023438 -16.5390625 191.13671875 C-105.5524779 195.72376105 -105.5524779 195.72376105 -121 188 C-121 187.01 -121 186.02 -121 185 C-115.42932723 183.40837921 -110.78898419 182.79325056 -105 183 C-105.02320313 182.28199219 -105.04640625 181.56398438 -105.0703125 180.82421875 C-105.36355229 164.00482245 -102.65738635 147.55817795 -99.3125 131.125 C-99.13736877 130.25391602 -98.96223755 129.38283203 -98.78179932 128.48535156 C-96.2690638 116.06419413 -93.39955742 103.97702748 -88.8203125 92.13037109 C-87.98022121 89.94863401 -87.18883644 87.7537427 -86.40625 85.55078125 C-83.73987238 78.11507437 -80.77468044 70.95093593 -77 64 C-76.5153125 63.09765625 -76.030625 62.1953125 -75.53125 61.265625 C-74.51274573 59.38450997 -73.4854194 57.50814411 -72.44921875 55.63671875 C-71.57552795 54.04711958 -70.71850877 52.4479589 -69.89453125 50.83203125 C-62.84416923 37.26581119 -52.56366141 25.89954889 -42 15 C-42 15.99 -42 16.98 -42 18 C-40.68 18.66 -39.36 19.32 -38 20 C-37.67 19.34 -37.34 18.68 -37 18 C-36.44441406 18.2475 -35.88882813 18.495 -35.31640625 18.75 C-32.84029552 19.26906295 -32.84029552 19.26906295 -30.58984375 17.375 C-29.71457031 16.59125 -28.83929688 15.8075 -27.9375 15 C-7.51826708 -2.50608903 -7.51826708 -2.50608903 0 0 Z M-37 24 C-37.99 24.99 -38.98 25.98 -40 27 C-39.67 27.66 -39.34 28.32 -39 29 C-38.01 28.01 -37.02 27.02 -36 26 C-36.33 25.34 -36.66 24.68 -37 24 Z " fill="#2E2E2E" transform="translate(316,147)"/>
<path d="M0 0 C4.37875824 0.01142933 8.75727435 0.00459131 13.13602448 -0.00687408 C43.93728861 -0.07550584 43.93728861 -0.07550584 57.76025391 1.15136719 C59.07095856 1.2675943 59.07095856 1.2675943 60.40814209 1.38616943 C64.13385488 1.78155867 66.32722348 2.14913857 69.49462891 4.26074219 C55.25237767 7.20052551 41.10093341 7.42257011 26.62353516 7.42871094 C24.8115181 7.43193579 22.99950129 7.43530071 21.18748474 7.438797 C17.40289712 7.44475054 13.6183322 7.44664096 9.83374023 7.44604492 C5.99873109 7.44596389 2.16384196 7.45287479 -1.67114258 7.46655273 C-42.42551576 7.61007184 -42.42551576 7.61007184 -60.50537109 5.26074219 C-60.50537109 4.27074219 -60.50537109 3.28074219 -60.50537109 2.26074219 C-40.32276864 0.19611015 -20.26729936 -0.05358665 0 0 Z " fill="#040404" transform="translate(255.50537109375,329.7392578125)"/>
<path d="M0 0 C-0.98097656 0.49886719 -1.96195312 0.99773437 -2.97265625 1.51171875 C-16.41658479 8.57616072 -27.97276878 17.5559284 -37.484375 29.48828125 C-39 31 -39 31 -42 31 C-51.04057087 38.96319714 -58.13173141 50.59820627 -64 61 C-66.23551759 57.64672361 -66.17283528 57.09256343 -65.625 53.3125 C-65.51414063 52.50425781 -65.40328125 51.69601563 -65.2890625 50.86328125 C-65.19367188 50.24839844 -65.09828125 49.63351563 -65 49 C-66.485 49.495 -66.485 49.495 -68 50 C-66.62436543 44.95856826 -64.28588469 41.13682725 -61.1875 37 C-60.7133667 36.35861084 -60.2392334 35.71722168 -59.75073242 35.05639648 C-54.3480519 27.90149526 -48.23244165 21.43061149 -42 15 C-42 15.99 -42 16.98 -42 18 C-40.68 18.66 -39.36 19.32 -38 20 C-37.67 19.34 -37.34 18.68 -37 18 C-36.44441406 18.2475 -35.88882813 18.495 -35.31640625 18.75 C-32.84029552 19.26906295 -32.84029552 19.26906295 -30.58984375 17.375 C-29.71457031 16.59125 -28.83929688 15.8075 -27.9375 15 C-7.51826708 -2.50608903 -7.51826708 -2.50608903 0 0 Z M-37 24 C-37.99 24.99 -38.98 25.98 -40 27 C-39.67 27.66 -39.34 28.32 -39 29 C-38.01 28.01 -37.02 27.02 -36 26 C-36.33 25.34 -36.66 24.68 -37 24 Z " fill="#3B3B3D" transform="translate(316,147)"/>
<path d="M0 0 C0.33 0 0.66 0 1 0 C1.37174077 7.06307459 0.2653154 13.35399494 -1.24609375 20.25390625 C-2.6546966 27.25312973 -3.14262234 33.88760169 -3.0625 41 C-3.05798828 41.77472656 -3.05347656 42.54945313 -3.04882812 43.34765625 C-3.03719758 45.23180524 -3.01926906 47.11591365 -3 49 C-2.83395264 47.6996582 -2.83395264 47.6996582 -2.66455078 46.37304688 C-2.24711966 43.12220972 -1.82540382 39.87198575 -1.40087891 36.62207031 C-1.21885011 35.22189839 -1.03847583 33.82151025 -0.85986328 32.42089844 C0.06504584 25.17663818 0.98700771 18.03640549 3 11 C3.33 11 3.66 11 4 11 C3.57026906 18.69070192 2.50254609 26.12380144 1.09326172 33.68115234 C-0.01782675 39.76804468 -0.61940694 45.82452764 -1 52 C-0.36980957 51.9297612 0.26038086 51.8595224 0.90966797 51.78715515 C8.66011411 50.99520667 16.3382335 50.83891696 24.125 50.83203125 C25.47949251 50.8288015 26.8339847 50.82543629 28.18847656 50.82194519 C31.0224691 50.81599217 33.85643135 50.81410077 36.69042969 50.81469727 C39.53489662 50.81477768 42.37919958 50.80796694 45.22363281 50.79418945 C59.86668421 50.72444504 74.4472083 50.83324931 89.0625 51.88671875 C90.15594727 51.96445023 91.24939453 52.0421817 92.37597656 52.12226868 C98.12456733 52.58916606 103.45274878 53.41382245 109 55 C109 55.99 109 56.98 109 58 C101.01262286 59.64869708 93.13850959 60.57550939 85 61 C84.16210938 61.04511719 83.32421875 61.09023438 82.4609375 61.13671875 C48.80759163 62.87094409 13.36022034 64.26202557 -20 59 C-20 58.67 -20 58.34 -20 58 C-18.7835228 58.0702388 -17.56704559 58.1404776 -16.31370544 58.21284485 C-4.3372765 58.87554204 7.59659214 59.16277846 19.58984375 59.16796875 C21.39425175 59.17119889 23.19865951 59.17456412 25.00306702 59.17805481 C28.75001634 59.18397521 32.49694283 59.18590195 36.24389648 59.18530273 C40.03789013 59.18522133 43.8317634 59.19219924 47.62573242 59.20581055 C76.38033147 59.45430326 76.38033147 59.45430326 105 57 C105 56.67 105 56.34 105 56 C85.45017258 53.54269724 65.93054913 53.72844337 46.26690674 53.80438232 C42.75457054 53.81517453 39.24227314 53.81481017 35.72992325 53.81436348 C17.12888901 53.8150017 -1.42181337 53.97807038 -20 55 C-20 54.67 -20 54.34 -20 54 C-15.23692563 53.04738513 -10.8333472 52.91666643 -6 53 C-6.02320313 52.28199219 -6.04640625 51.56398438 -6.0703125 50.82421875 C-6.37113733 33.56976583 -3.4751348 16.84706909 0 0 Z " fill="#A6A6A6" transform="translate(217,277)"/>
<path d="M0 0 C1.6875 1.125 1.6875 1.125 3 3 C3.3125 5.8125 3.3125 5.8125 2 9 C-0.2841158 10.72679154 -2.66021158 12.05935505 -5.171875 13.43359375 C-11.8671541 17.1418906 -17.97907083 21.66280343 -23.4296875 27.03125 C-25 28 -25 28 -27.0078125 27.59375 C-27.66523438 27.3978125 -28.32265625 27.201875 -29 27 C-29.99 27.33 -30.98 27.66 -32 28 C-32.99 27.34 -33.98 26.68 -35 26 C-31.61878453 22.11786372 -31.61878453 22.11786372 -28.375 21.5 C-27.199375 21.2525 -27.199375 21.2525 -26 21 C-24.85790183 19.21771064 -24.85790183 19.21771064 -24 17 C-19.81598728 11.22894798 -15.2998611 8.14993055 -9 5 C-7.7369157 4.12271132 -6.48703131 3.22615798 -5.25 2.3125 C-2 0 -2 0 0 0 Z " fill="#030405" transform="translate(308,139)"/>
<path d="M0 0 C0.66 0 1.32 0 2 0 C2.48718669 5.87330615 1.91851794 10.76535413 0.1171875 16.38671875 C-2.16191148 24.07665734 -3.21633444 31.71889809 -4.125 39.6875 C-4.43054137 42.33859546 -4.74766861 44.98757244 -5.0703125 47.63671875 C-5.20195801 48.78873779 -5.33360352 49.94075684 -5.46923828 51.12768555 C-6 54 -6 54 -8 57 C-8.35903136 44.3807125 -7.670452 32.54972226 -5.37597656 20.13623047 C-4.64821187 16.00120383 -4.152448 11.82870402 -3.625 7.6640625 C-2.91273049 4.62801373 -1.83042108 2.51682898 0 0 Z " fill="#1B1B1B" transform="translate(221,272)"/>
<path d="M0 0 C0.66 0.33 1.32 0.66 2 1 C1.67 1.66 1.34 2.32 1 3 C4.37817425 3.84454356 6.67465243 4.10844919 10 3 C8.81094701 6.56715898 7.98737275 6.89759948 4.875 8.8125 C1.0577511 11.22786576 -2.18018695 13.82936936 -5.39453125 16.99609375 C-7 18 -7 18 -9.01171875 17.59765625 C-9.66785156 17.40042969 -10.32398438 17.20320313 -11 17 C-11.99 17.33 -12.98 17.66 -14 18 C-14.99 17.34 -15.98 16.68 -17 16 C-13.61878453 12.11786372 -13.61878453 12.11786372 -10.375 11.5 C-9.59125 11.335 -8.8075 11.17 -8 11 C-6.85790183 9.21771064 -6.85790183 9.21771064 -6 7 C-4.10479336 4.51254129 -2.21106147 2.21106147 0 0 Z M-2 4 C-1.01 5.485 -1.01 5.485 0 7 C0.33 6.01 0.66 5.02 1 4 C0.01 4 -0.98 4 -2 4 Z " fill="#08080A" transform="translate(290,149)"/>
<path d="M0 0 C0.33 0.66 0.66 1.32 1 2 C0.41992188 2.75023437 -0.16015625 3.50046875 -0.7578125 4.2734375 C-5.61319085 10.63510484 -10.05961493 17.0154743 -14 24 C-16.23551759 20.64672361 -16.17283528 20.09256343 -15.625 16.3125 C-15.51414063 15.50425781 -15.40328125 14.69601563 -15.2890625 13.86328125 C-15.19367188 13.24839844 -15.09828125 12.63351563 -15 12 C-15.99 12.33 -16.98 12.66 -18 13 C-16.72278474 8.00724943 -14.82669043 5.42388092 -11 2 C-10.67 2.99 -10.34 3.98 -10 5 C-9.34 5 -8.68 5 -8 5 C-7.67 5.66 -7.34 6.32 -7 7 C-4.09197539 4.78071806 -2.04687238 3.07030857 0 0 Z " fill="#4B4B4C" transform="translate(266,184)"/>
<path d="M0 0 C0.98120464 3.05263664 0.98120464 4.94736336 0 8 C0.66 8 1.32 8 2 8 C2.33 8.66 2.66 9.32 3 10 C3.99 7.69 4.98 5.38 6 3 C7.14184472 6.3747102 6.84408845 8.39433064 5.78515625 11.765625 C5.51123047 12.65507812 5.23730469 13.54453125 4.95507812 14.4609375 C4.66052734 15.38132812 4.36597656 16.30171875 4.0625 17.25 C3.77181641 18.18585938 3.48113281 19.12171875 3.18164062 20.0859375 C2.46343503 22.3936145 1.73596262 24.69793682 1 27 C0.67 27 0.34 27 0 27 C0 24.69 0 22.38 0 20 C-2.51083114 21.25541557 -2.87125446 22.50063488 -4 25 C-4.96548985 21.9322617 -4.98532316 19.89831516 -4.2578125 16.77734375 C-4.07863281 15.99166016 -3.89945313 15.20597656 -3.71484375 14.39648438 C-3.52019531 13.58501953 -3.32554687 12.77355469 -3.125 11.9375 C-2.93808594 11.12216797 -2.75117188 10.30683594 -2.55859375 9.46679688 C-1.81387215 6.25287424 -1.04412143 3.13236429 0 0 Z " fill="#595959" transform="translate(223,252)"/>
<path d="M0 0 C-0.98097656 0.49886719 -1.96195312 0.99773437 -2.97265625 1.51171875 C-17.08001112 8.92477436 -28.94783435 18.57128401 -39 31 C-39 25.04703299 -34.98668473 21.06368078 -31 17 C-8.42474558 -2.80824853 -8.42474558 -2.80824853 0 0 Z " fill="#B5B7B8" transform="translate(316,147)"/>
<path d="M0 0 C0.33 1.32 0.66 2.64 1 4 C1.66 4 2.32 4 3 4 C3.51385563 6.82620599 3.34138082 8.49003606 1.734375 10.890625 C0.21930562 12.6998826 -1.24435875 14.42174219 -3 16 C-3.66 16 -4.32 16 -5 16 C-5.33 16.66 -5.66 17.32 -6 18 C-6.66 17.01 -7.32 16.02 -8 15 C-8.66 14.34 -9.32 13.68 -10 13 C-9.21625 12.278125 -8.4325 11.55625 -7.625 10.8125 C-5.10172843 8.10899475 -4.24568309 6.38113981 -3 3 C-1.375 1.1875 -1.375 1.1875 0 0 Z " fill="#070809" transform="translate(264,175)"/>
<path d="M0 0 C1.32 0.33 2.64 0.66 4 1 C4.62927547 8.39398671 2.06592415 13.90111377 -2 20 C-2.33 18.68 -2.66 17.36 -3 16 C-3.66 16 -4.32 16 -5 16 C-4.55643705 9.79011871 -3.08467498 5.39459439 0 0 Z " fill="#0F0F0F" transform="translate(228,244)"/>
<path d="M0 0 C0.66 0.33 1.32 0.66 2 1 C-1.95805822 5.06800428 -5.69357712 8.29112185 -10.625 11.0625 C-13.95019786 12.77606783 -13.95019786 12.77606783 -16 15 C-16.64767793 17.57061311 -16.64767793 17.57061311 -17 20 C-17.99 20 -18.98 20 -20 20 C-20.33 20.66 -20.66 21.32 -21 22 C-21.66 22 -22.32 22 -23 22 C-23.33 22.66 -23.66 23.32 -24 24 C-25.32 23.67 -26.64 23.34 -28 23 C-19.71897343 14.12747153 -9.88308562 6.98371102 0 0 Z " fill="#909191" transform="translate(303,138)"/>
<path d="M0 0 C4.26639319 6.39958979 1.93530316 15.63374983 1.125 23 C1.04668945 23.7420166 0.96837891 24.4840332 0.88769531 25.24853516 C0.45555346 28.85385655 0.04797806 30.92803292 -2 34 C-2.20923895 22.44536021 -2.1142071 11.40161688 0 0 Z " fill="#262626" transform="translate(215,295)"/>
<path d="M0 0 C-1.29029013 6.19339263 -3.9964167 10.15289443 -8 15 C-8 12.37886292 -7.68707555 10.49064888 -7 8 C-7.66 8 -8.32 8 -9 8 C-9.33 7.01 -9.66 6.02 -10 5 C-10.99 4.34 -11.98 3.68 -13 3 C-11.40084119 2.30093058 -9.79544955 1.61610532 -8.1875 0.9375 C-7.29417969 0.55464844 -6.40085937 0.17179688 -5.48046875 -0.22265625 C-3 -1 -3 -1 0 0 Z " fill="#767676" transform="translate(314,228)"/>
<path d="M0 0 C-0.99 0.66 -1.98 1.32 -3 2 C-0.03 1.34 2.94 0.68 6 0 C5.01 1.485 5.01 1.485 4 3 C3.01 3 2.02 3 1 3 C0.67 3.66 0.34 4.32 0 5 C-1.051875 4.979375 -2.10375 4.95875 -3.1875 4.9375 C-6.7731211 4.87216102 -6.7731211 4.87216102 -9.3125 5.5 C-13.51871615 6.28255184 -17.7336828 6.074557 -22 6 C-22 5.67 -22 5.34 -22 5 C-20.948125 4.72736328 -20.948125 4.72736328 -19.875 4.44921875 C-15.31940999 3.24223498 -10.87223838 2.02010397 -6.5 0.25 C-3 -1 -3 -1 0 0 Z " fill="#B7B8B9" transform="translate(335,175)"/>
<path d="M0 0 C-1.20540652 3.61621957 -2.2255028 4.06985695 -5.375 6.0625 C-6.16648437 6.56910156 -6.95796875 7.07570312 -7.7734375 7.59765625 C-8.50820313 8.06042969 -9.24296875 8.52320313 -10 9 C-10.99 9.66 -11.98 10.32 -13 11 C-13.33 10.34 -13.66 9.68 -14 9 C-14.66 8.67 -15.32 8.34 -16 8 C-12.25 4.125 -12.25 4.125 -10 3 C-9.67 2.34 -9.34 1.68 -9 1 C-5.98003217 0.45091494 -3.07380605 0 0 0 Z " fill="#131315" transform="translate(300,152)"/>
<path d="M0 0 C0 3.60573896 -0.81707462 4.41336566 -3 7.1875 C-3.556875 7.90292969 -4.11375 8.61835938 -4.6875 9.35546875 C-5.120625 9.89816406 -5.55375 10.44085938 -6 11 C-5.01 11.66 -4.02 12.32 -3 13 C-3.33 13.66 -3.66 14.32 -4 15 C-4.99 15 -5.98 15 -7 15 C-7.33 15.66 -7.66 16.32 -8 17 C-8.66 17 -9.32 17 -10 17 C-10.33 17.99 -10.66 18.98 -11 20 C-11.66 20 -12.32 20 -13 20 C-11.49122712 15.62947855 -9.15352643 12.05541347 -6.5 8.3125 C-5.89478516 7.44141602 -5.89478516 7.44141602 -5.27734375 6.55273438 C-3.63165943 4.20369653 -2.03193123 2.03193123 0 0 Z " fill="#838586" transform="translate(273,180)"/>
<path d="M0 0 C2.0625 0.4375 2.0625 0.4375 4 1 C3.48050781 1.50789062 2.96101563 2.01578125 2.42578125 2.5390625 C-1.6224371 6.53490094 -5.44650891 10.55813614 -9 15 C-9 10.33289362 -6.9530181 7.72811141 -3.9375 4.3125 C-3.41027344 3.71050781 -2.88304687 3.10851562 -2.33984375 2.48828125 C-1.57807951 1.6421233 -0.80506771 0.80506771 0 0 Z " fill="#E0E0E2" transform="translate(286,163)"/>
<path d="M0 0 C-0.33 1.32 -0.66 2.64 -1 4 C-1.66 4 -2.32 4 -3 4 C-3.33 4.66 -3.66 5.32 -4 6 C-4.66 6 -5.32 6 -6 6 C-6.33 6.66 -6.66 7.32 -7 8 C-8.32 7.67 -9.64 7.34 -11 7 C-9.9296491 5.82141137 -8.84316035 4.6574639 -7.75 3.5 C-7.14671875 2.8503125 -6.5434375 2.200625 -5.921875 1.53125 C-4 0 -4 0 0 0 Z " fill="#59595A" transform="translate(286,154)"/>
<path d="M0 0 C-2.28874173 1.33858524 -4.58069656 2.67101014 -6.875 4 C-7.52597656 4.3815625 -8.17695313 4.763125 -8.84765625 5.15625 C-13.7734375 8 -13.7734375 8 -16 8 C-16.33 7.01 -16.66 6.02 -17 5 C-15.02 5 -13.04 5 -11 5 C-10.67 4.01 -10.34 3.02 -10 2 C-8.22265625 1.015625 -8.22265625 1.015625 -6.0625 0.25 C-5.35222656 -0.01296875 -4.64195312 -0.2759375 -3.91015625 -0.546875 C-2 -1 -2 -1 0 0 Z " fill="#6D6D6E" transform="translate(307,224)"/>
<path d="M0 0 C0.66 0 1.32 0 2 0 C2 0.66 2 1.32 2 2 C2.99 2 3.98 2 5 2 C5 2.99 5 3.98 5 5 C1.535 6.485 1.535 6.485 -2 8 C-2.33 6.02 -2.66 4.04 -3 2 C-1.68 2.33 -0.36 2.66 1 3 C0.67 2.01 0.34 1.02 0 0 Z " fill="#0A0B0C" transform="translate(304,144)"/>
<path d="M0 0 C0.66 0 1.32 0 2 0 C2.1875 3.375 2.1875 3.375 2 7 C1.01 7.66 0.02 8.32 -1 9 C-1.80967438 6.08517222 -2.21845993 4.53886783 -1.0625 1.6875 C-0.711875 1.130625 -0.36125 0.57375 0 0 Z " fill="#070707" transform="translate(221,272)"/>
<path d="M0 0 C2.31 0.33 4.62 0.66 7 1 C3.51783717 3.05137315 0.22724343 3.56818592 -3.75 4.125 C-4.92046875 4.29257813 -6.0909375 4.46015625 -7.296875 4.6328125 C-8.18890625 4.75398437 -9.0809375 4.87515625 -10 5 C-7.80202597 2.80202597 -6.82453855 2.54102483 -3.875 1.875 C-2.59625 1.58625 -1.3175 1.2975 0 1 C0 0.67 0 0.34 0 0 Z " fill="#BCBDC0" transform="translate(285,234)"/>
<path d="M0 0 C0.33 0 0.66 0 1 0 C1 5.94 1 11.88 1 18 C0.34 18.33 -0.32 18.66 -1 19 C-2.19127531 14.643098 -1.76679687 11.12042737 -1.0625 6.6875 C-0.86785156 5.43324219 -0.67320312 4.17898438 -0.47265625 2.88671875 C-0.31667969 1.93410156 -0.16070312 0.98148437 0 0 Z " fill="#B7B7B7" transform="translate(229,287)"/>
<path d="M0 0 C0 0.99 0 1.98 0 3 C-1 4 -2 5 -3 6 C-3.309375 6.845625 -3.61875 7.69125 -3.9375 8.5625 C-5 11 -5 11 -7.125 12.3125 C-8.053125 12.6528125 -8.053125 12.6528125 -9 13 C-7.47987323 7.59510481 -3.72614782 4.01507372 0 0 Z " fill="#9A9B9B" transform="translate(264,173)"/>
<path d="M0 0 C0 0.99 0 1.98 0 3 C-3.46669756 6.30545582 -6.39137539 8.50897439 -11 10 C-10.3125 7.5625 -10.3125 7.5625 -9 5 C-7.34608154 4.60828247 -5.67654729 4.27942455 -4 4 C-1.70710528 2.04190477 -1.70710528 2.04190477 0 0 Z " fill="#A6A6A8" transform="translate(346,164)"/>
<path d="M0 0 C0.66 0.33 1.32 0.66 2 1 C2 2.32 2 3.64 2 5 C-1 5 -4 5 -7 5 C-4.69 3.35 -2.38 1.7 0 0 Z M-2 5 C0 6 0 6 0 6 Z " fill="#161719" transform="translate(305,152)"/>
<path d="M0 0 C2.64 0 5.28 0 8 0 C7.01 1.485 7.01 1.485 6 3 C2.875 3.1875 2.875 3.1875 0 3 C0 2.01 0 1.02 0 0 Z " fill="#444444" transform="translate(195,332)"/>
<path d="M0 0 C1.32 0.66 2.64 1.32 4 2 C4 2.66 4 3.32 4 4 C2.02 4.33 0.04 4.66 -2 5 C-1.34 3.35 -0.68 1.7 0 0 Z " fill="#1A1B1D" transform="translate(318,175)"/>
<path d="M0 0 C0.66 0.99 1.32 1.98 2 3 C0.6875 4.5 0.6875 4.5 -1 6 C-1.99 6 -2.98 6 -4 6 C-2.84826645 3.53199953 -1.95216435 1.95216435 0 0 Z " fill="#070707" transform="translate(271,167)"/>
</svg>
